{
	"patcher" : 	{
		"fileversion" : 1,
		"rect" : [ 25.0, 69.0, 640.0, 480.0 ],
		"bglocked" : 0,
		"defrect" : [ 25.0, 69.0, 640.0, 480.0 ],
		"openrect" : [ 0.0, 0.0, 0.0, 0.0 ],
		"openinpresentation" : 1,
		"default_fontsize" : 10.0,
		"default_fontface" : 0,
		"default_fontname" : "Verdana",
		"gridonopen" : 0,
		"gridsize" : [ 15.0, 15.0 ],
		"gridsnaponopen" : 0,
		"toolbarvisible" : 1,
		"boxanimatetime" : 200,
		"imprint" : 0,
		"enablehscroll" : 1,
		"enablevscroll" : 1,
		"devicewidth" : 0.0,
		"boxes" : [ 			{
				"box" : 				{
					"comment" : "",
					"id" : "obj-1",
					"maxclass" : "outlet",
					"numinlets" : 1,
					"numoutlets" : 0,
					"patching_rect" : [ 5.0, 71.0, 25.0, 25.0 ]
				}

			}
, 			{
				"box" : 				{
					"fontname" : "Verdana",
					"fontsize" : 10.0,
					"id" : "obj-4",
					"maxclass" : "newobj",
					"numinlets" : 1,
					"numoutlets" : 1,
					"outlettype" : [ "" ],
					"patching_rect" : [ 205.0, 7.0, 86.0, 19.0 ],
					"text" : "loadmess set 1"
				}

			}
, 			{
				"box" : 				{
					"bordercolor" : [ 0.388235, 0.388235, 0.388235, 1.0 ],
					"fontname" : "Verdana",
					"fontsize" : 10.0,
					"hint" : "starting value",
					"id" : "obj-40",
					"maxclass" : "flonum",
					"numinlets" : 1,
					"numoutlets" : 2,
					"outlettype" : [ "float", "bang" ],
					"patching_rect" : [ 295.0, 14.666672, 50.0, 19.0 ],
					"presentation" : 1,
					"presentation_rect" : [ 38.0, 0.0, 62.0, 19.0 ]
				}

			}
, 			{
				"box" : 				{
					"bordercolor" : [ 0.388235, 0.388235, 0.388235, 1.0 ],
					"fontname" : "Verdana",
					"fontsize" : 10.0,
					"hint" : "increment",
					"id" : "obj-20",
					"maxclass" : "flonum",
					"numinlets" : 1,
					"numoutlets" : 2,
					"outlettype" : [ "float", "bang" ],
					"patching_rect" : [ 150.0, 14.666672, 50.0, 19.0 ],
					"presentation" : 1,
					"presentation_rect" : [ 101.0, 0.0, 62.0, 19.0 ]
				}

			}
, 			{
				"box" : 				{
					"bordercolor" : [ 0.388235, 0.388235, 0.388235, 1.0 ],
					"fontname" : "Verdana",
					"fontsize" : 10.0,
					"hint" : "list length",
					"id" : "obj-23",
					"maxclass" : "number",
					"maximum" : 512,
					"minimum" : 2,
					"numinlets" : 1,
					"numoutlets" : 2,
					"outlettype" : [ "int", "bang" ],
					"patching_rect" : [ 5.0, 14.666672, 50.0, 19.0 ],
					"presentation" : 1,
					"presentation_rect" : [ 0.0, -0.333328, 36.0, 19.0 ]
				}

			}
, 			{
				"box" : 				{
					"#init" : "2 1 0",
					"#loadbang" : 0,
					"#triggerall" : 1,
					"#untuple" : 0,
					"fontname" : "Verdana",
					"fontsize" : 10.0,
					"ftm_objref_conv" : 0,
					"ftm_scope" : 3,
					"id" : "obj-14",
					"maxclass" : "ftm.mess",
					"numinlets" : 3,
					"numins" : 3,
					"numoutlets" : 1,
					"outlettype" : [ "" ],
					"patching_rect" : [ 5.0, 42.0, 303.857452, 17.0 ],
					"presentation_rect" : [ 5.0, 42.0, 303.857452, 17.0 ],
					"text" : [ "_(list (((($listgen rows $1) fill $2) cumsum) add ($3 - $2)))" ]
				}

			}
 ],
		"lines" : [ 			{
				"patchline" : 				{
					"destination" : [ "obj-1", 0 ],
					"hidden" : 0,
					"midpoints" : [  ],
					"source" : [ "obj-14", 0 ]
				}

			}
, 			{
				"patchline" : 				{
					"destination" : [ "obj-14", 1 ],
					"hidden" : 0,
					"midpoints" : [  ],
					"source" : [ "obj-20", 0 ]
				}

			}
, 			{
				"patchline" : 				{
					"destination" : [ "obj-14", 0 ],
					"hidden" : 0,
					"midpoints" : [  ],
					"source" : [ "obj-23", 0 ]
				}

			}
, 			{
				"patchline" : 				{
					"destination" : [ "obj-20", 0 ],
					"hidden" : 0,
					"midpoints" : [  ],
					"source" : [ "obj-4", 0 ]
				}

			}
, 			{
				"patchline" : 				{
					"destination" : [ "obj-14", 2 ],
					"hidden" : 0,
					"midpoints" : [  ],
					"source" : [ "obj-40", 0 ]
				}

			}
 ]
	}

}
