{
	"patcher" : 	{
		"fileversion" : 1,
		"rect" : [ 138.0, 157.548401, 92.0, 19.0 ],
		"bgcolor" : [ 1.0, 1.0, 1.0, 0.0 ],
		"bglocked" : 0,
		"defrect" : [ 585.0, 168.0, 710.0, 441.0 ],
		"openrect" : [ 0.0, 0.0, 0.0, 0.0 ],
		"openinpresentation" : 1,
		"default_fontsize" : 10.0,
		"default_fontface" : 0,
		"default_fontname" : "Verdana",
		"gridonopen" : 0,
		"gridsize" : [ 15.0, 15.0 ],
		"gridsnaponopen" : 0,
		"toolbarvisible" : 1,
		"boxanimatetime" : 0,
		"imprint" : 0,
		"enablehscroll" : 1,
		"enablevscroll" : 1,
		"devicewidth" : 0.0,
		"boxes" : [ 			{
				"box" : 				{
					"comment" : "",
					"id" : "obj-16",
					"maxclass" : "inlet",
					"numinlets" : 0,
					"numoutlets" : 1,
					"outlettype" : [ "" ],
					"patching_rect" : [ 385.0, 46.0, 25.0, 25.0 ]
				}

			}
, 			{
				"box" : 				{
					"fontname" : "Verdana",
					"fontsize" : 10.0,
					"id" : "obj-10",
					"maxclass" : "message",
					"numinlets" : 2,
					"numoutlets" : 1,
					"outlettype" : [ "" ],
					"patching_rect" : [ 663.0, 163.0, 69.0, 17.0 ],
					"text" : "offset 0 -80"
				}

			}
, 			{
				"box" : 				{
					"fontname" : "Verdana",
					"fontsize" : 10.0,
					"id" : "obj-5",
					"maxclass" : "message",
					"numinlets" : 2,
					"numoutlets" : 1,
					"outlettype" : [ "" ],
					"patching_rect" : [ 608.0, 141.0, 69.0, 17.0 ],
					"text" : "offset 0 -60"
				}

			}
, 			{
				"box" : 				{
					"fontname" : "Verdana",
					"fontsize" : 10.0,
					"id" : "obj-15",
					"maxclass" : "comment",
					"numinlets" : 1,
					"numoutlets" : 0,
					"patching_rect" : [ 102.0, 315.0, 102.0, 19.0 ],
					"presentation" : 1,
					"presentation_rect" : [ 44.0, 79.548401, 56.0, 19.0 ],
					"text" : "exp"
				}

			}
, 			{
				"box" : 				{
					"fontname" : "Verdana",
					"fontsize" : 10.0,
					"id" : "obj-14",
					"maxclass" : "comment",
					"numinlets" : 1,
					"numoutlets" : 0,
					"patching_rect" : [ 102.0, 255.0, 102.0, 19.0 ],
					"presentation" : 1,
					"presentation_rect" : [ 44.0, 59.548401, 56.0, 19.0 ],
					"text" : "laplace"
				}

			}
, 			{
				"box" : 				{
					"fontname" : "Verdana",
					"fontsize" : 10.0,
					"id" : "obj-13",
					"maxclass" : "comment",
					"numinlets" : 1,
					"numoutlets" : 0,
					"patching_rect" : [ 102.0, 195.0, 102.0, 19.0 ],
					"presentation" : 1,
					"presentation_rect" : [ 44.0, 39.548401, 56.0, 19.0 ],
					"text" : "cauchy"
				}

			}
, 			{
				"box" : 				{
					"fontname" : "Verdana",
					"fontsize" : 10.0,
					"id" : "obj-12",
					"maxclass" : "comment",
					"numinlets" : 1,
					"numoutlets" : 0,
					"patching_rect" : [ 102.0, 135.0, 102.0, 19.0 ],
					"presentation" : 1,
					"presentation_rect" : [ 44.0, 19.548401, 56.0, 19.0 ],
					"text" : "gauss"
				}

			}
, 			{
				"box" : 				{
					"fontname" : "Verdana",
					"fontsize" : 10.0,
					"id" : "obj-11",
					"maxclass" : "comment",
					"numinlets" : 1,
					"numoutlets" : 0,
					"patching_rect" : [ 151.0, 55.0, 102.0, 19.0 ],
					"presentation" : 1,
					"presentation_rect" : [ 100.0, -0.451599, 56.0, 19.0 ],
					"text" : "beta"
				}

			}
, 			{
				"box" : 				{
					"fontname" : "Verdana",
					"fontsize" : 10.0,
					"id" : "obj-9",
					"maxclass" : "message",
					"numinlets" : 2,
					"numoutlets" : 1,
					"outlettype" : [ "" ],
					"patching_rect" : [ 553.0, 162.0, 69.0, 17.0 ],
					"text" : "offset 0 -40"
				}

			}
, 			{
				"box" : 				{
					"fontname" : "Verdana",
					"fontsize" : 10.0,
					"id" : "obj-8",
					"maxclass" : "message",
					"numinlets" : 2,
					"numoutlets" : 1,
					"outlettype" : [ "" ],
					"patching_rect" : [ 499.0, 139.0, 69.0, 17.0 ],
					"text" : "offset 0 -20"
				}

			}
, 			{
				"box" : 				{
					"fontname" : "Verdana",
					"fontsize" : 10.0,
					"id" : "obj-7",
					"maxclass" : "message",
					"numinlets" : 2,
					"numoutlets" : 1,
					"outlettype" : [ "" ],
					"patching_rect" : [ 444.0, 162.0, 58.0, 17.0 ],
					"text" : "offset 0 0"
				}

			}
, 			{
				"box" : 				{
					"fontname" : "Verdana",
					"fontsize" : 10.0,
					"id" : "obj-6",
					"maxclass" : "message",
					"numinlets" : 2,
					"numoutlets" : 1,
					"outlettype" : [ "" ],
					"patching_rect" : [ 389.0, 139.0, 65.0, 17.0 ],
					"text" : "offset 0 20"
				}

			}
, 			{
				"box" : 				{
					"fontname" : "Verdana",
					"fontsize" : 10.0,
					"id" : "obj-4",
					"maxclass" : "newobj",
					"numinlets" : 1,
					"numoutlets" : 1,
					"outlettype" : [ "front" ],
					"patching_rect" : [ 334.0, 133.0, 42.0, 19.0 ],
					"text" : "t front"
				}

			}
, 			{
				"box" : 				{
					"fontname" : "Verdana",
					"fontsize" : 10.0,
					"id" : "obj-3",
					"maxclass" : "newobj",
					"numinlets" : 1,
					"numoutlets" : 8,
					"outlettype" : [ "", "", "", "", "", "", "", "" ],
					"patching_rect" : [ 334.0, 107.0, 403.0, 19.0 ],
					"text" : "route front 0 1 2 3 4 5"
				}

			}
, 			{
				"box" : 				{
					"comment" : "",
					"id" : "obj-2",
					"maxclass" : "inlet",
					"numinlets" : 0,
					"numoutlets" : 1,
					"outlettype" : [ "int" ],
					"patching_rect" : [ 334.0, 41.0, 25.0, 25.0 ]
				}

			}
, 			{
				"box" : 				{
					"fontname" : "Verdana",
					"fontsize" : 10.0,
					"id" : "obj-1",
					"maxclass" : "newobj",
					"numinlets" : 1,
					"numoutlets" : 2,
					"outlettype" : [ "", "" ],
					"patching_rect" : [ 334.0, 208.0, 67.0, 19.0 ],
					"save" : [ "#N", "thispatcher", ";", "#Q", "end", ";" ],
					"text" : "thispatcher"
				}

			}
, 			{
				"box" : 				{
					"bordercolor" : [ 0.392157, 0.392157, 0.392157, 1.0 ],
					"fontname" : "Verdana",
					"fontsize" : 10.0,
					"hint" : "#2/random/distribution/exponential",
					"id" : "obj-748",
					"maxclass" : "flonum",
					"numinlets" : 1,
					"numoutlets" : 2,
					"outlettype" : [ "float", "bang" ],
					"patching_rect" : [ 15.0, 314.999939, 62.0, 19.0 ],
					"presentation" : 1,
					"presentation_rect" : [ -0.105103, 79.548401, 45.0, 19.0 ]
				}

			}
, 			{
				"box" : 				{
					"bordercolor" : [ 0.392157, 0.392157, 0.392157, 1.0 ],
					"fontname" : "Verdana",
					"fontsize" : 10.0,
					"hint" : "#2/random/distribution/laplace",
					"id" : "obj-749",
					"maxclass" : "flonum",
					"numinlets" : 1,
					"numoutlets" : 2,
					"outlettype" : [ "float", "bang" ],
					"patching_rect" : [ 15.0, 254.999939, 62.0, 19.0 ],
					"presentation" : 1,
					"presentation_rect" : [ -0.105103, 59.548401, 45.0, 19.0 ]
				}

			}
, 			{
				"box" : 				{
					"bordercolor" : [ 0.392157, 0.392157, 0.392157, 1.0 ],
					"fontname" : "Verdana",
					"fontsize" : 10.0,
					"hint" : "#2/random/distribution/cauchy",
					"id" : "obj-750",
					"maxclass" : "flonum",
					"numinlets" : 1,
					"numoutlets" : 2,
					"outlettype" : [ "float", "bang" ],
					"patching_rect" : [ 15.0, 194.999939, 62.0, 19.0 ],
					"presentation" : 1,
					"presentation_rect" : [ -0.105103, 39.548401, 45.0, 19.0 ]
				}

			}
, 			{
				"box" : 				{
					"bordercolor" : [ 0.392157, 0.392157, 0.392157, 1.0 ],
					"fontname" : "Verdana",
					"fontsize" : 10.0,
					"hint" : "#2/random/distribution/gaussian",
					"id" : "obj-751",
					"maxclass" : "flonum",
					"numinlets" : 1,
					"numoutlets" : 2,
					"outlettype" : [ "float", "bang" ],
					"patching_rect" : [ 15.0, 135.0, 62.0, 19.0 ],
					"presentation" : 1,
					"presentation_rect" : [ -0.105103, 19.548401, 45.0, 19.0 ]
				}

			}
, 			{
				"box" : 				{
					"fontname" : "Verdana",
					"fontsize" : 10.0,
					"id" : "obj-752",
					"maxclass" : "newobj",
					"numinlets" : 1,
					"numoutlets" : 2,
					"outlettype" : [ "", "" ],
					"patcher" : 					{
						"fileversion" : 1,
						"rect" : [ 25.0, 69.0, 393.0, 149.0 ],
						"bglocked" : 0,
						"defrect" : [ 25.0, 69.0, 393.0, 149.0 ],
						"openrect" : [ 0.0, 0.0, 0.0, 0.0 ],
						"openinpresentation" : 0,
						"default_fontsize" : 10.0,
						"default_fontface" : 0,
						"default_fontname" : "Verdana",
						"gridonopen" : 0,
						"gridsize" : [ 15.0, 15.0 ],
						"gridsnaponopen" : 0,
						"toolbarvisible" : 1,
						"boxanimatetime" : 200,
						"imprint" : 0,
						"enablehscroll" : 1,
						"enablevscroll" : 1,
						"devicewidth" : 0.0,
						"boxes" : [ 							{
								"box" : 								{
									"fontname" : "Verdana",
									"fontsize" : 10.0,
									"id" : "obj-9",
									"maxclass" : "newobj",
									"numinlets" : 1,
									"numoutlets" : 1,
									"outlettype" : [ "" ],
									"patching_rect" : [ 212.0, 85.0, 70.0, 19.0 ],
									"text" : "prepend set"
								}

							}
, 							{
								"box" : 								{
									"fontname" : "Verdana",
									"fontsize" : 10.0,
									"id" : "obj-8",
									"maxclass" : "newobj",
									"numinlets" : 1,
									"numoutlets" : 1,
									"outlettype" : [ "" ],
									"patching_rect" : [ 127.0, 85.0, 70.0, 19.0 ],
									"text" : "prepend set"
								}

							}
, 							{
								"box" : 								{
									"fontname" : "Verdana",
									"fontsize" : 10.0,
									"id" : "obj-7",
									"maxclass" : "newobj",
									"numinlets" : 1,
									"numoutlets" : 3,
									"outlettype" : [ "", "float", "float" ],
									"patching_rect" : [ 42.0, 51.0, 189.0, 19.0 ],
									"text" : "unpack set 0. 0."
								}

							}
, 							{
								"box" : 								{
									"comment" : "",
									"id" : "obj-5",
									"maxclass" : "outlet",
									"numinlets" : 1,
									"numoutlets" : 0,
									"patching_rect" : [ 211.5, 111.0, 25.0, 25.0 ]
								}

							}
, 							{
								"box" : 								{
									"comment" : "",
									"id" : "obj-4",
									"maxclass" : "outlet",
									"numinlets" : 1,
									"numoutlets" : 0,
									"patching_rect" : [ 127.0, 111.0, 25.0, 25.0 ]
								}

							}
, 							{
								"box" : 								{
									"comment" : "",
									"id" : "obj-1",
									"maxclass" : "inlet",
									"numinlets" : 0,
									"numoutlets" : 1,
									"outlettype" : [ "" ],
									"patching_rect" : [ 42.0, 16.0, 25.0, 25.0 ]
								}

							}
 ],
						"lines" : [ 							{
								"patchline" : 								{
									"destination" : [ "obj-7", 0 ],
									"hidden" : 0,
									"midpoints" : [  ],
									"source" : [ "obj-1", 0 ]
								}

							}
, 							{
								"patchline" : 								{
									"destination" : [ "obj-8", 0 ],
									"hidden" : 0,
									"midpoints" : [  ],
									"source" : [ "obj-7", 1 ]
								}

							}
, 							{
								"patchline" : 								{
									"destination" : [ "obj-9", 0 ],
									"hidden" : 0,
									"midpoints" : [  ],
									"source" : [ "obj-7", 2 ]
								}

							}
, 							{
								"patchline" : 								{
									"destination" : [ "obj-4", 0 ],
									"hidden" : 0,
									"midpoints" : [  ],
									"source" : [ "obj-8", 0 ]
								}

							}
, 							{
								"patchline" : 								{
									"destination" : [ "obj-5", 0 ],
									"hidden" : 0,
									"midpoints" : [  ],
									"source" : [ "obj-9", 0 ]
								}

							}
 ]
					}
,
					"patching_rect" : [ 15.0, 35.0, 80.0, 19.0 ],
					"saved_object_attributes" : 					{
						"fontface" : 0,
						"fontsize" : 10.0,
						"default_fontface" : 0,
						"default_fontname" : "Verdana",
						"fontname" : "Verdana",
						"default_fontsize" : 10.0,
						"globalpatchername" : ""
					}
,
					"text" : "p unpack+set"
				}

			}
, 			{
				"box" : 				{
					"bordercolor" : [ 0.392157, 0.392157, 0.392157, 1.0 ],
					"fontname" : "Verdana",
					"fontsize" : 10.0,
					"hint" : "#2/random/distribution/beta beta",
					"id" : "obj-753",
					"maxclass" : "flonum",
					"minimum" : 0.0,
					"numinlets" : 1,
					"numoutlets" : 2,
					"outlettype" : [ "float", "bang" ],
					"patching_rect" : [ 81.0, 55.0, 62.0, 19.0 ],
					"presentation" : 1,
					"presentation_rect" : [ 45.894897, -0.451599, 45.0, 19.0 ]
				}

			}
, 			{
				"box" : 				{
					"bordercolor" : [ 0.392157, 0.392157, 0.392157, 1.0 ],
					"fontname" : "Verdana",
					"fontsize" : 10.0,
					"hint" : "#2/random/distribution/beta alpha",
					"id" : "obj-754",
					"maxclass" : "flonum",
					"minimum" : 0.0,
					"numinlets" : 1,
					"numoutlets" : 2,
					"outlettype" : [ "float", "bang" ],
					"patching_rect" : [ 15.0, 55.0, 62.0, 19.0 ],
					"presentation" : 1,
					"presentation_rect" : [ -0.105103, -0.451599, 45.0, 19.0 ]
				}

			}
, 			{
				"box" : 				{
					"fontname" : "Verdana",
					"fontsize" : 10.0,
					"id" : "obj-755",
					"maxclass" : "newobj",
					"numinlets" : 2,
					"numoutlets" : 1,
					"outlettype" : [ "" ],
					"patching_rect" : [ 15.0, 75.0, 56.0, 19.0 ],
					"text" : "pak 0. 0."
				}

			}
, 			{
				"box" : 				{
					"fontname" : "Verdana",
					"fontsize" : 10.0,
					"id" : "obj-758",
					"maxclass" : "newobj",
					"numinlets" : 0,
					"numoutlets" : 1,
					"outlettype" : [ "" ],
					"patching_rect" : [ 15.0, 294.999939, 267.0, 19.0 ],
					"text" : "r #1/random/distribution/exponential.from"
				}

			}
, 			{
				"box" : 				{
					"fontname" : "Verdana",
					"fontsize" : 10.0,
					"id" : "obj-759",
					"maxclass" : "newobj",
					"numinlets" : 1,
					"numoutlets" : 0,
					"patching_rect" : [ 15.0, 334.999939, 264.0, 19.0 ],
					"text" : "s #1/random/distribution/exponential.to"
				}

			}
, 			{
				"box" : 				{
					"fontname" : "Verdana",
					"fontsize" : 10.0,
					"id" : "obj-760",
					"maxclass" : "newobj",
					"numinlets" : 0,
					"numoutlets" : 1,
					"outlettype" : [ "" ],
					"patching_rect" : [ 15.0, 234.999939, 244.0, 19.0 ],
					"text" : "r #1/random/distribution/laplace.from"
				}

			}
, 			{
				"box" : 				{
					"fontname" : "Verdana",
					"fontsize" : 10.0,
					"id" : "obj-761",
					"maxclass" : "newobj",
					"numinlets" : 1,
					"numoutlets" : 0,
					"patching_rect" : [ 15.0, 274.999939, 249.0, 19.0 ],
					"text" : "s #1/random/distribution/laplace.to"
				}

			}
, 			{
				"box" : 				{
					"fontname" : "Verdana",
					"fontsize" : 10.0,
					"id" : "obj-762",
					"maxclass" : "newobj",
					"numinlets" : 0,
					"numoutlets" : 1,
					"outlettype" : [ "" ],
					"patching_rect" : [ 15.0, 174.999939, 243.0, 19.0 ],
					"text" : "r #1/random/distribution/cauchy.from"
				}

			}
, 			{
				"box" : 				{
					"fontname" : "Verdana",
					"fontsize" : 10.0,
					"id" : "obj-763",
					"maxclass" : "newobj",
					"numinlets" : 1,
					"numoutlets" : 0,
					"patching_rect" : [ 15.0, 214.999939, 249.0, 19.0 ],
					"text" : "s #1/random/distribution/cauchy.to"
				}

			}
, 			{
				"box" : 				{
					"fontname" : "Verdana",
					"fontsize" : 10.0,
					"id" : "obj-764",
					"maxclass" : "newobj",
					"numinlets" : 0,
					"numoutlets" : 1,
					"outlettype" : [ "" ],
					"patching_rect" : [ 15.0, 115.0, 253.0, 19.0 ],
					"text" : "r #1/random/distribution/gaussian.from"
				}

			}
, 			{
				"box" : 				{
					"fontname" : "Verdana",
					"fontsize" : 10.0,
					"id" : "obj-765",
					"maxclass" : "newobj",
					"numinlets" : 1,
					"numoutlets" : 0,
					"patching_rect" : [ 15.0, 154.999939, 249.0, 19.0 ],
					"text" : "s #1/random/distribution/gaussian.to"
				}

			}
, 			{
				"box" : 				{
					"fontname" : "Verdana",
					"fontsize" : 10.0,
					"id" : "obj-766",
					"maxclass" : "newobj",
					"numinlets" : 0,
					"numoutlets" : 1,
					"outlettype" : [ "" ],
					"patching_rect" : [ 15.0, 15.0, 231.0, 19.0 ],
					"text" : "r #1/random/distribution/beta.from"
				}

			}
, 			{
				"box" : 				{
					"fontname" : "Verdana",
					"fontsize" : 10.0,
					"id" : "obj-767",
					"maxclass" : "newobj",
					"numinlets" : 1,
					"numoutlets" : 0,
					"patching_rect" : [ 15.0, 95.0, 230.0, 19.0 ],
					"text" : "s #1/random/distribution/beta.to"
				}

			}
 ],
		"lines" : [ 			{
				"patchline" : 				{
					"destination" : [ "obj-1", 0 ],
					"hidden" : 0,
					"midpoints" : [  ],
					"source" : [ "obj-10", 0 ]
				}

			}
, 			{
				"patchline" : 				{
					"destination" : [ "obj-1", 0 ],
					"hidden" : 0,
					"midpoints" : [  ],
					"source" : [ "obj-16", 0 ]
				}

			}
, 			{
				"patchline" : 				{
					"destination" : [ "obj-3", 0 ],
					"hidden" : 0,
					"midpoints" : [  ],
					"source" : [ "obj-2", 0 ]
				}

			}
, 			{
				"patchline" : 				{
					"destination" : [ "obj-10", 0 ],
					"hidden" : 0,
					"midpoints" : [  ],
					"source" : [ "obj-3", 6 ]
				}

			}
, 			{
				"patchline" : 				{
					"destination" : [ "obj-4", 0 ],
					"hidden" : 0,
					"midpoints" : [  ],
					"source" : [ "obj-3", 0 ]
				}

			}
, 			{
				"patchline" : 				{
					"destination" : [ "obj-5", 0 ],
					"hidden" : 0,
					"midpoints" : [  ],
					"source" : [ "obj-3", 5 ]
				}

			}
, 			{
				"patchline" : 				{
					"destination" : [ "obj-6", 0 ],
					"hidden" : 0,
					"midpoints" : [  ],
					"source" : [ "obj-3", 1 ]
				}

			}
, 			{
				"patchline" : 				{
					"destination" : [ "obj-7", 0 ],
					"hidden" : 0,
					"midpoints" : [  ],
					"source" : [ "obj-3", 2 ]
				}

			}
, 			{
				"patchline" : 				{
					"destination" : [ "obj-8", 0 ],
					"hidden" : 0,
					"midpoints" : [  ],
					"source" : [ "obj-3", 3 ]
				}

			}
, 			{
				"patchline" : 				{
					"destination" : [ "obj-9", 0 ],
					"hidden" : 0,
					"midpoints" : [  ],
					"source" : [ "obj-3", 4 ]
				}

			}
, 			{
				"patchline" : 				{
					"destination" : [ "obj-1", 0 ],
					"hidden" : 0,
					"midpoints" : [  ],
					"source" : [ "obj-4", 0 ]
				}

			}
, 			{
				"patchline" : 				{
					"destination" : [ "obj-1", 0 ],
					"hidden" : 0,
					"midpoints" : [  ],
					"source" : [ "obj-5", 0 ]
				}

			}
, 			{
				"patchline" : 				{
					"destination" : [ "obj-1", 0 ],
					"hidden" : 0,
					"midpoints" : [  ],
					"source" : [ "obj-6", 0 ]
				}

			}
, 			{
				"patchline" : 				{
					"destination" : [ "obj-1", 0 ],
					"hidden" : 0,
					"midpoints" : [  ],
					"source" : [ "obj-7", 0 ]
				}

			}
, 			{
				"patchline" : 				{
					"destination" : [ "obj-759", 0 ],
					"hidden" : 0,
					"midpoints" : [  ],
					"source" : [ "obj-748", 0 ]
				}

			}
, 			{
				"patchline" : 				{
					"destination" : [ "obj-761", 0 ],
					"hidden" : 0,
					"midpoints" : [  ],
					"source" : [ "obj-749", 0 ]
				}

			}
, 			{
				"patchline" : 				{
					"destination" : [ "obj-763", 0 ],
					"hidden" : 0,
					"midpoints" : [  ],
					"source" : [ "obj-750", 0 ]
				}

			}
, 			{
				"patchline" : 				{
					"destination" : [ "obj-765", 0 ],
					"hidden" : 0,
					"midpoints" : [  ],
					"source" : [ "obj-751", 0 ]
				}

			}
, 			{
				"patchline" : 				{
					"destination" : [ "obj-753", 0 ],
					"hidden" : 0,
					"midpoints" : [  ],
					"source" : [ "obj-752", 1 ]
				}

			}
, 			{
				"patchline" : 				{
					"destination" : [ "obj-754", 0 ],
					"hidden" : 0,
					"midpoints" : [  ],
					"source" : [ "obj-752", 0 ]
				}

			}
, 			{
				"patchline" : 				{
					"destination" : [ "obj-755", 1 ],
					"hidden" : 0,
					"midpoints" : [  ],
					"source" : [ "obj-752", 1 ]
				}

			}
, 			{
				"patchline" : 				{
					"destination" : [ "obj-755", 0 ],
					"hidden" : 0,
					"midpoints" : [  ],
					"source" : [ "obj-752", 0 ]
				}

			}
, 			{
				"patchline" : 				{
					"destination" : [ "obj-755", 1 ],
					"hidden" : 0,
					"midpoints" : [  ],
					"source" : [ "obj-753", 0 ]
				}

			}
, 			{
				"patchline" : 				{
					"destination" : [ "obj-755", 0 ],
					"hidden" : 0,
					"midpoints" : [  ],
					"source" : [ "obj-754", 0 ]
				}

			}
, 			{
				"patchline" : 				{
					"destination" : [ "obj-767", 0 ],
					"hidden" : 0,
					"midpoints" : [  ],
					"source" : [ "obj-755", 0 ]
				}

			}
, 			{
				"patchline" : 				{
					"destination" : [ "obj-748", 0 ],
					"hidden" : 0,
					"midpoints" : [  ],
					"source" : [ "obj-758", 0 ]
				}

			}
, 			{
				"patchline" : 				{
					"destination" : [ "obj-749", 0 ],
					"hidden" : 0,
					"midpoints" : [  ],
					"source" : [ "obj-760", 0 ]
				}

			}
, 			{
				"patchline" : 				{
					"destination" : [ "obj-750", 0 ],
					"hidden" : 0,
					"midpoints" : [  ],
					"source" : [ "obj-762", 0 ]
				}

			}
, 			{
				"patchline" : 				{
					"destination" : [ "obj-751", 0 ],
					"hidden" : 0,
					"midpoints" : [  ],
					"source" : [ "obj-764", 0 ]
				}

			}
, 			{
				"patchline" : 				{
					"destination" : [ "obj-752", 0 ],
					"hidden" : 0,
					"midpoints" : [  ],
					"source" : [ "obj-766", 0 ]
				}

			}
, 			{
				"patchline" : 				{
					"destination" : [ "obj-1", 0 ],
					"hidden" : 0,
					"midpoints" : [  ],
					"source" : [ "obj-8", 0 ]
				}

			}
, 			{
				"patchline" : 				{
					"destination" : [ "obj-1", 0 ],
					"hidden" : 0,
					"midpoints" : [  ],
					"source" : [ "obj-9", 0 ]
				}

			}
 ]
	}

}
